<svg width="210" height="252" viewBox="0 0 210 252" fill="none" xmlns="http://www.w3.org/2000/svg">
<path fill-rule="evenodd" clip-rule="evenodd" d="M34.5853 28.7246C57.3473 6.45131 89.4076 -3.5596 120.799 1.80403L131.498 3.63195C171.495 10.466 202.542 42.2803 208.398 82.4329C209.501 89.9946 209.674 97.6629 208.913 105.267L208.227 112.128C205.93 135.096 195.7 156.544 179.297 172.783C165.863 186.083 149.027 195.161 130.849 199.171L155.431 240.141C157.562 243.693 156.411 248.3 152.859 250.431C149.307 252.562 144.7 251.411 142.569 247.859L115.569 202.859C115.278 202.373 115.048 201.869 114.877 201.353C113.082 201.451 111.28 201.5 109.472 201.5H36C31.5817 201.5 28 197.918 28 193.5C28 189.082 31.5817 185.5 36 185.5H109.472C131.406 185.5 152.453 176.844 168.041 161.413C181.799 147.791 190.38 129.801 192.306 110.536L192.993 103.675C193.623 97.3699 193.48 91.0117 192.565 84.7418C187.71 51.4489 161.967 25.0699 128.803 19.4034L118.105 17.5755C91.7686 13.0757 64.8717 21.4743 45.7756 40.1604C30.4439 55.163 21.4868 75.4992 20.768 96.938L15.9955 239.268C15.8474 243.684 12.1477 247.144 7.73191 246.996C3.31611 246.848 -0.14357 243.148 0.00449657 238.732L4.77696 96.4018C5.63383 70.8474 16.3104 46.6072 34.5853 28.7246ZM95.7051 32.0431C115.03 28.508 134.948 33.3415 150.503 45.3413L163.886 55.6657C167.385 58.3644 168.033 63.3881 165.334 66.8864C162.636 70.3847 157.612 71.0329 154.114 68.3342L140.73 58.0098C128.766 48.7806 113.447 45.0631 98.5841 47.782L97.0837 48.0564C70.7879 52.8666 52.5122 76.9528 54.96 103.573C56.5807 121.197 67.1163 136.764 82.8763 144.819L83.7844 145.283C92.1348 149.551 101.528 151.353 110.865 150.478C133.668 148.34 151.972 130.568 155.167 108H121C119.895 108 119 108.895 119 110V116C119 120.418 115.418 124 111 124C106.582 124 103 120.418 103 116V110C103 100.059 111.059 92 121 92H157.667C165.841 92 172.12 99.071 171.379 107.079C168.483 138.349 143.715 163.468 112.358 166.408C99.9959 167.567 87.5589 165.181 76.5026 159.53L75.5945 159.066C54.9506 148.515 41.1501 128.124 39.0272 105.038C35.8208 70.1687 59.76 38.6184 94.2046 32.3176L95.7051 32.0431Z" fill="#00C9B7" fill-opacity="0.0470588"/>
</svg>
